<mxfile host="app.diagrams.net" modified="2020-09-01T05:23:44.534Z" agent="5.0 (Macintosh; Intel Mac OS X 10_15_6) AppleWebKit/537.36 (KHTML, like Gecko) Chrome/84.0.4147.135 Safari/537.36" etag="nzEBHjGzWAhE9OKxFnac" version="13.6.6" type="github">
  <diagram id="prtHgNgQTEPvFCAcTncT" name="Page-1">
    <mxGraphModel dx="1729" dy="591" grid="1" gridSize="10" guides="1" tooltips="1" connect="1" arrows="1" fold="1" page="1" pageScale="1" pageWidth="827" pageHeight="1169" math="0" shadow="0">
      <root>
        <mxCell id="0" />
        <mxCell id="1" parent="0" />
        <mxCell id="dNxyNK7c78bLwvsdeMH5-11" value="Katoch Family" style="swimlane;html=1;startSize=20;horizontal=1;containerType=tree;glass=0;" parent="1" vertex="1">
          <mxGeometry x="30" y="50" width="1600" height="700" as="geometry" />
        </mxCell>
        <mxCell id="FDAv1wYGj09VSfgf0g2c-12" style="edgeStyle=orthogonalEdgeStyle;rounded=0;orthogonalLoop=1;jettySize=auto;html=1;exitX=0.5;exitY=1;exitDx=0;exitDy=0;entryX=0.5;entryY=0;entryDx=0;entryDy=0;" edge="1" parent="dNxyNK7c78bLwvsdeMH5-11" source="dNxyNK7c78bLwvsdeMH5-12" target="FDAv1wYGj09VSfgf0g2c-7">
          <mxGeometry relative="1" as="geometry">
            <Array as="points">
              <mxPoint x="350" y="140" />
              <mxPoint x="145" y="140" />
            </Array>
          </mxGeometry>
        </mxCell>
        <mxCell id="FDAv1wYGj09VSfgf0g2c-13" style="edgeStyle=orthogonalEdgeStyle;rounded=0;orthogonalLoop=1;jettySize=auto;html=1;exitX=0.5;exitY=1;exitDx=0;exitDy=0;entryX=0.5;entryY=0;entryDx=0;entryDy=0;" edge="1" parent="dNxyNK7c78bLwvsdeMH5-11" source="dNxyNK7c78bLwvsdeMH5-12" target="FDAv1wYGj09VSfgf0g2c-8">
          <mxGeometry relative="1" as="geometry" />
        </mxCell>
        <mxCell id="FDAv1wYGj09VSfgf0g2c-14" style="edgeStyle=orthogonalEdgeStyle;rounded=0;orthogonalLoop=1;jettySize=auto;html=1;exitX=0.5;exitY=1;exitDx=0;exitDy=0;entryX=0.5;entryY=0;entryDx=0;entryDy=0;" edge="1" parent="dNxyNK7c78bLwvsdeMH5-11" source="dNxyNK7c78bLwvsdeMH5-12" target="FDAv1wYGj09VSfgf0g2c-9">
          <mxGeometry relative="1" as="geometry" />
        </mxCell>
        <mxCell id="FDAv1wYGj09VSfgf0g2c-15" style="edgeStyle=orthogonalEdgeStyle;rounded=0;orthogonalLoop=1;jettySize=auto;html=1;exitX=0.5;exitY=1;exitDx=0;exitDy=0;" edge="1" parent="dNxyNK7c78bLwvsdeMH5-11" source="dNxyNK7c78bLwvsdeMH5-12" target="FDAv1wYGj09VSfgf0g2c-11">
          <mxGeometry relative="1" as="geometry" />
        </mxCell>
        <UserObject label="Kalesar Chand" name="Evan Miller" position="CFO" location="Office 1" email="me@example.com" placeholders="1" link="https://www.draw.io" id="dNxyNK7c78bLwvsdeMH5-12">
          <mxCell style="label;image=https://cdn3.iconfinder.com/data/icons/user-avatars-1/512/users-9-2-128.png;whiteSpace=wrap;html=1;rounded=0;glass=0;treeMoving=1;treeFolding=1;" parent="dNxyNK7c78bLwvsdeMH5-11" vertex="1">
            <mxGeometry x="260" y="50" width="180" height="70" as="geometry" />
          </mxCell>
        </UserObject>
        <mxCell id="FDAv1wYGj09VSfgf0g2c-6" style="edgeStyle=orthogonalEdgeStyle;rounded=0;orthogonalLoop=1;jettySize=auto;html=1;exitX=0.5;exitY=1;exitDx=0;exitDy=0;entryX=0.5;entryY=0;entryDx=0;entryDy=0;" edge="1" parent="dNxyNK7c78bLwvsdeMH5-11" source="FDAv1wYGj09VSfgf0g2c-2" target="FDAv1wYGj09VSfgf0g2c-5">
          <mxGeometry relative="1" as="geometry" />
        </mxCell>
        <UserObject label="Lakhu Singh" name="Evan Miller" position="CFO" location="Office 1" email="me@example.com" placeholders="1" link="https://www.draw.io" id="FDAv1wYGj09VSfgf0g2c-2">
          <mxCell style="label;image=https://cdn3.iconfinder.com/data/icons/user-avatars-1/512/users-9-2-128.png;whiteSpace=wrap;html=1;rounded=0;glass=0;treeMoving=1;treeFolding=1;" vertex="1" parent="dNxyNK7c78bLwvsdeMH5-11">
            <mxGeometry x="1170" y="50" width="180" height="70" as="geometry" />
          </mxCell>
        </UserObject>
        <UserObject label="Ajit Singh &amp;amp;&lt;br&gt;Phulan Devi" name="Evan Miller" position="CFO" location="Office 1" email="me@example.com" placeholders="1" link="https://www.draw.io" id="FDAv1wYGj09VSfgf0g2c-5">
          <mxCell style="label;image=https://cdn3.iconfinder.com/data/icons/user-avatars-1/512/users-9-2-128.png;whiteSpace=wrap;html=1;rounded=0;glass=0;treeMoving=1;treeFolding=1;" vertex="1" parent="dNxyNK7c78bLwvsdeMH5-11">
            <mxGeometry x="1170" y="160" width="180" height="70" as="geometry" />
          </mxCell>
        </UserObject>
        <UserObject label="Jamba" name="Evan Miller" position="CFO" location="Office 1" email="me@example.com" placeholders="1" link="https://www.draw.io" id="FDAv1wYGj09VSfgf0g2c-7">
          <mxCell style="label;image=https://cdn3.iconfinder.com/data/icons/user-avatars-1/512/users-9-2-128.png;whiteSpace=wrap;html=1;rounded=0;glass=0;treeMoving=1;treeFolding=1;" vertex="1" parent="dNxyNK7c78bLwvsdeMH5-11">
            <mxGeometry x="80" y="160" width="130" height="70" as="geometry" />
          </mxCell>
        </UserObject>
        <UserObject label="Kanhaia" name="Evan Miller" position="CFO" location="Office 1" email="me@example.com" placeholders="1" link="https://www.draw.io" id="FDAv1wYGj09VSfgf0g2c-8">
          <mxCell style="label;image=https://cdn3.iconfinder.com/data/icons/user-avatars-1/512/users-9-2-128.png;whiteSpace=wrap;html=1;rounded=0;glass=0;treeMoving=1;treeFolding=1;" vertex="1" parent="dNxyNK7c78bLwvsdeMH5-11">
            <mxGeometry x="280" y="160" width="130" height="70" as="geometry" />
          </mxCell>
        </UserObject>
        <mxCell id="FDAv1wYGj09VSfgf0g2c-19" style="edgeStyle=orthogonalEdgeStyle;rounded=0;orthogonalLoop=1;jettySize=auto;html=1;exitX=0.5;exitY=1;exitDx=0;exitDy=0;entryX=0.5;entryY=0;entryDx=0;entryDy=0;" edge="1" parent="dNxyNK7c78bLwvsdeMH5-11" source="FDAv1wYGj09VSfgf0g2c-9" target="FDAv1wYGj09VSfgf0g2c-16">
          <mxGeometry relative="1" as="geometry" />
        </mxCell>
        <mxCell id="FDAv1wYGj09VSfgf0g2c-20" style="edgeStyle=orthogonalEdgeStyle;rounded=0;orthogonalLoop=1;jettySize=auto;html=1;exitX=0.5;exitY=1;exitDx=0;exitDy=0;" edge="1" parent="dNxyNK7c78bLwvsdeMH5-11" source="FDAv1wYGj09VSfgf0g2c-9" target="FDAv1wYGj09VSfgf0g2c-17">
          <mxGeometry relative="1" as="geometry" />
        </mxCell>
        <mxCell id="FDAv1wYGj09VSfgf0g2c-21" style="edgeStyle=orthogonalEdgeStyle;rounded=0;orthogonalLoop=1;jettySize=auto;html=1;exitX=0.5;exitY=1;exitDx=0;exitDy=0;entryX=0.5;entryY=0;entryDx=0;entryDy=0;" edge="1" parent="dNxyNK7c78bLwvsdeMH5-11" source="FDAv1wYGj09VSfgf0g2c-9" target="FDAv1wYGj09VSfgf0g2c-18">
          <mxGeometry relative="1" as="geometry" />
        </mxCell>
        <UserObject label="Labh Singh" name="Evan Miller" position="CFO" location="Office 1" email="me@example.com" placeholders="1" link="https://www.draw.io" id="FDAv1wYGj09VSfgf0g2c-9">
          <mxCell style="label;image=https://cdn3.iconfinder.com/data/icons/user-avatars-1/512/users-9-2-128.png;whiteSpace=wrap;html=1;rounded=0;glass=0;treeMoving=1;treeFolding=1;" vertex="1" parent="dNxyNK7c78bLwvsdeMH5-11">
            <mxGeometry x="500" y="160" width="140" height="70" as="geometry" />
          </mxCell>
        </UserObject>
        <UserObject label="Laxman Singh" name="Evan Miller" position="CFO" location="Office 1" email="me@example.com" placeholders="1" link="https://www.draw.io" id="FDAv1wYGj09VSfgf0g2c-11">
          <mxCell style="label;image=https://cdn3.iconfinder.com/data/icons/user-avatars-1/512/users-9-2-128.png;whiteSpace=wrap;html=1;rounded=0;glass=0;treeMoving=1;treeFolding=1;" vertex="1" parent="dNxyNK7c78bLwvsdeMH5-11">
            <mxGeometry x="720" y="160" width="140" height="70" as="geometry" />
          </mxCell>
        </UserObject>
        <mxCell id="FDAv1wYGj09VSfgf0g2c-28" style="edgeStyle=orthogonalEdgeStyle;rounded=0;orthogonalLoop=1;jettySize=auto;html=1;exitX=0.5;exitY=1;exitDx=0;exitDy=0;entryX=0.5;entryY=0;entryDx=0;entryDy=0;" edge="1" parent="dNxyNK7c78bLwvsdeMH5-11" source="FDAv1wYGj09VSfgf0g2c-16" target="FDAv1wYGj09VSfgf0g2c-23">
          <mxGeometry relative="1" as="geometry" />
        </mxCell>
        <mxCell id="FDAv1wYGj09VSfgf0g2c-29" style="edgeStyle=orthogonalEdgeStyle;rounded=0;orthogonalLoop=1;jettySize=auto;html=1;exitX=0.5;exitY=1;exitDx=0;exitDy=0;entryX=0.5;entryY=0;entryDx=0;entryDy=0;" edge="1" parent="dNxyNK7c78bLwvsdeMH5-11" source="FDAv1wYGj09VSfgf0g2c-16" target="FDAv1wYGj09VSfgf0g2c-25">
          <mxGeometry relative="1" as="geometry" />
        </mxCell>
        <UserObject label="Mastram" name="Evan Miller" position="CFO" location="Office 1" email="me@example.com" placeholders="1" link="https://www.draw.io" id="FDAv1wYGj09VSfgf0g2c-16">
          <mxCell style="label;image=https://cdn3.iconfinder.com/data/icons/user-avatars-1/512/users-9-2-128.png;whiteSpace=wrap;html=1;rounded=0;glass=0;treeMoving=1;treeFolding=1;" vertex="1" parent="dNxyNK7c78bLwvsdeMH5-11">
            <mxGeometry x="75" y="270" width="140" height="70" as="geometry" />
          </mxCell>
        </UserObject>
        <UserObject label="Bhim Singh" name="Evan Miller" position="CFO" location="Office 1" email="me@example.com" placeholders="1" link="https://www.draw.io" id="FDAv1wYGj09VSfgf0g2c-17">
          <mxCell style="label;image=https://cdn3.iconfinder.com/data/icons/user-avatars-1/512/users-9-2-128.png;whiteSpace=wrap;html=1;rounded=0;glass=0;treeMoving=1;treeFolding=1;" vertex="1" parent="dNxyNK7c78bLwvsdeMH5-11">
            <mxGeometry x="275" y="270" width="140" height="70" as="geometry" />
          </mxCell>
        </UserObject>
        <UserObject label="Ram Singh" name="Evan Miller" position="CFO" location="Office 1" email="me@example.com" placeholders="1" link="https://www.draw.io" id="FDAv1wYGj09VSfgf0g2c-18">
          <mxCell style="label;image=https://cdn3.iconfinder.com/data/icons/user-avatars-1/512/users-9-2-128.png;whiteSpace=wrap;html=1;rounded=0;glass=0;treeMoving=1;treeFolding=1;" vertex="1" parent="dNxyNK7c78bLwvsdeMH5-11">
            <mxGeometry x="500" y="270" width="140" height="70" as="geometry" />
          </mxCell>
        </UserObject>
        <UserObject label="Parbhat Singh" name="Evan Miller" position="CFO" location="Office 1" email="me@example.com" placeholders="1" link="https://www.draw.io" id="FDAv1wYGj09VSfgf0g2c-25">
          <mxCell style="label;image=https://cdn3.iconfinder.com/data/icons/user-avatars-1/512/users-9-2-128.png;whiteSpace=wrap;html=1;rounded=0;glass=0;treeMoving=1;treeFolding=1;" vertex="1" parent="dNxyNK7c78bLwvsdeMH5-11">
            <mxGeometry x="75" y="380" width="140" height="70" as="geometry" />
          </mxCell>
        </UserObject>
        <mxCell id="FDAv1wYGj09VSfgf0g2c-40" style="edgeStyle=orthogonalEdgeStyle;rounded=0;orthogonalLoop=1;jettySize=auto;html=1;exitX=0.5;exitY=1;exitDx=0;exitDy=0;" edge="1" parent="dNxyNK7c78bLwvsdeMH5-11" source="FDAv1wYGj09VSfgf0g2c-23" target="FDAv1wYGj09VSfgf0g2c-37">
          <mxGeometry relative="1" as="geometry" />
        </mxCell>
        <UserObject label="Uttam Chand" name="Evan Miller" position="CFO" location="Office 1" email="me@example.com" placeholders="1" link="https://www.draw.io" id="FDAv1wYGj09VSfgf0g2c-23">
          <mxCell style="label;image=https://cdn3.iconfinder.com/data/icons/user-avatars-1/512/users-9-2-128.png;whiteSpace=wrap;html=1;rounded=0;glass=0;treeMoving=1;treeFolding=1;" vertex="1" parent="dNxyNK7c78bLwvsdeMH5-11">
            <mxGeometry x="-110" y="380" width="140" height="70" as="geometry" />
          </mxCell>
        </UserObject>
        <UserObject label="Kaleu" name="Evan Miller" position="CFO" location="Office 1" email="me@example.com" placeholders="1" link="https://www.draw.io" id="FDAv1wYGj09VSfgf0g2c-37">
          <mxCell style="label;image=https://cdn3.iconfinder.com/data/icons/user-avatars-1/512/users-9-2-128.png;whiteSpace=wrap;html=1;rounded=0;glass=0;treeMoving=1;treeFolding=1;" vertex="1" parent="dNxyNK7c78bLwvsdeMH5-11">
            <mxGeometry x="60" y="490" width="140" height="70" as="geometry" />
          </mxCell>
        </UserObject>
        <UserObject label="Titto" name="Evan Miller" position="CFO" location="Office 1" email="me@example.com" placeholders="1" link="https://www.draw.io" id="FDAv1wYGj09VSfgf0g2c-38">
          <mxCell style="label;image=https://cdn3.iconfinder.com/data/icons/user-avatars-1/512/users-9-2-128.png;whiteSpace=wrap;html=1;rounded=0;glass=0;treeMoving=1;treeFolding=1;" vertex="1" parent="dNxyNK7c78bLwvsdeMH5-11">
            <mxGeometry x="-110" y="490" width="140" height="70" as="geometry" />
          </mxCell>
        </UserObject>
        <mxCell id="FDAv1wYGj09VSfgf0g2c-39" style="edgeStyle=orthogonalEdgeStyle;rounded=0;orthogonalLoop=1;jettySize=auto;html=1;exitX=0.5;exitY=1;exitDx=0;exitDy=0;entryX=0.5;entryY=0;entryDx=0;entryDy=0;" edge="1" parent="dNxyNK7c78bLwvsdeMH5-11" source="FDAv1wYGj09VSfgf0g2c-23" target="FDAv1wYGj09VSfgf0g2c-38">
          <mxGeometry relative="1" as="geometry" />
        </mxCell>
        <mxCell id="FDAv1wYGj09VSfgf0g2c-33" style="edgeStyle=orthogonalEdgeStyle;rounded=0;orthogonalLoop=1;jettySize=auto;html=1;exitX=0.5;exitY=1;exitDx=0;exitDy=0;entryX=0.5;entryY=0;entryDx=0;entryDy=0;" edge="1" parent="1" source="FDAv1wYGj09VSfgf0g2c-24" target="FDAv1wYGj09VSfgf0g2c-30">
          <mxGeometry relative="1" as="geometry" />
        </mxCell>
        <mxCell id="FDAv1wYGj09VSfgf0g2c-34" style="edgeStyle=orthogonalEdgeStyle;rounded=0;orthogonalLoop=1;jettySize=auto;html=1;exitX=0.5;exitY=1;exitDx=0;exitDy=0;entryX=0.5;entryY=0;entryDx=0;entryDy=0;" edge="1" parent="1" source="FDAv1wYGj09VSfgf0g2c-24" target="FDAv1wYGj09VSfgf0g2c-31">
          <mxGeometry relative="1" as="geometry" />
        </mxCell>
        <UserObject label="Karam Chand" name="Evan Miller" position="CFO" location="Office 1" email="me@example.com" placeholders="1" link="https://www.draw.io" id="FDAv1wYGj09VSfgf0g2c-24">
          <mxCell style="label;image=https://cdn3.iconfinder.com/data/icons/user-avatars-1/512/users-9-2-128.png;whiteSpace=wrap;html=1;rounded=0;glass=0;treeMoving=1;treeFolding=1;" vertex="1" parent="1">
            <mxGeometry x="-430" y="430" width="140" height="70" as="geometry" />
          </mxCell>
        </UserObject>
        <mxCell id="FDAv1wYGj09VSfgf0g2c-36" style="edgeStyle=orthogonalEdgeStyle;rounded=0;orthogonalLoop=1;jettySize=auto;html=1;exitX=0.5;exitY=1;exitDx=0;exitDy=0;entryX=0.5;entryY=0;entryDx=0;entryDy=0;" edge="1" parent="1" source="FDAv1wYGj09VSfgf0g2c-22" target="FDAv1wYGj09VSfgf0g2c-35">
          <mxGeometry relative="1" as="geometry" />
        </mxCell>
        <UserObject label="Prem Chand" name="Evan Miller" position="CFO" location="Office 1" email="me@example.com" placeholders="1" link="https://www.draw.io" id="FDAv1wYGj09VSfgf0g2c-22">
          <mxCell style="label;image=https://cdn3.iconfinder.com/data/icons/user-avatars-1/512/users-9-2-128.png;whiteSpace=wrap;html=1;rounded=0;glass=0;treeMoving=1;treeFolding=1;" vertex="1" parent="1">
            <mxGeometry x="-250" y="430" width="140" height="70" as="geometry" />
          </mxCell>
        </UserObject>
        <mxCell id="FDAv1wYGj09VSfgf0g2c-26" style="edgeStyle=orthogonalEdgeStyle;rounded=0;orthogonalLoop=1;jettySize=auto;html=1;exitX=0.5;exitY=1;exitDx=0;exitDy=0;entryX=0.5;entryY=0;entryDx=0;entryDy=0;" edge="1" parent="1" source="FDAv1wYGj09VSfgf0g2c-16" target="FDAv1wYGj09VSfgf0g2c-24">
          <mxGeometry relative="1" as="geometry" />
        </mxCell>
        <mxCell id="FDAv1wYGj09VSfgf0g2c-27" style="edgeStyle=orthogonalEdgeStyle;rounded=0;orthogonalLoop=1;jettySize=auto;html=1;exitX=0.5;exitY=1;exitDx=0;exitDy=0;" edge="1" parent="1" source="FDAv1wYGj09VSfgf0g2c-16" target="FDAv1wYGj09VSfgf0g2c-22">
          <mxGeometry relative="1" as="geometry" />
        </mxCell>
        <UserObject label="Ravi" name="Evan Miller" position="CFO" location="Office 1" email="me@example.com" placeholders="1" link="https://www.draw.io" id="FDAv1wYGj09VSfgf0g2c-30">
          <mxCell style="label;image=https://cdn3.iconfinder.com/data/icons/user-avatars-1/512/users-9-2-128.png;whiteSpace=wrap;html=1;rounded=0;glass=0;treeMoving=1;treeFolding=1;" vertex="1" parent="1">
            <mxGeometry x="-630" y="540" width="140" height="70" as="geometry" />
          </mxCell>
        </UserObject>
        <UserObject label="Sash" name="Evan Miller" position="CFO" location="Office 1" email="me@example.com" placeholders="1" link="https://www.draw.io" id="FDAv1wYGj09VSfgf0g2c-31">
          <mxCell style="label;image=https://cdn3.iconfinder.com/data/icons/user-avatars-1/512/users-9-2-128.png;whiteSpace=wrap;html=1;rounded=0;glass=0;treeMoving=1;treeFolding=1;" vertex="1" parent="1">
            <mxGeometry x="-430" y="540" width="140" height="70" as="geometry" />
          </mxCell>
        </UserObject>
        <UserObject label="Mintu" name="Evan Miller" position="CFO" location="Office 1" email="me@example.com" placeholders="1" link="https://www.draw.io" id="FDAv1wYGj09VSfgf0g2c-35">
          <mxCell style="label;image=https://cdn3.iconfinder.com/data/icons/user-avatars-1/512/users-9-2-128.png;whiteSpace=wrap;html=1;rounded=0;glass=0;treeMoving=1;treeFolding=1;" vertex="1" parent="1">
            <mxGeometry x="-250" y="540" width="140" height="70" as="geometry" />
          </mxCell>
        </UserObject>
      </root>
    </mxGraphModel>
  </diagram>
</mxfile>
